# xmcd
#
# Track frame offsets: 
#        225
#        11365
#        22293
#        45861
#        56903
#        73161
#        81855
#        95119
#        106917
#        120881
#        134638
#        149909
#        164564
#        178289
#        196060
#        209501
#        220123
#        236702
#
# Disc length: 3324 seconds
#
# Revision: 3
# Processed by: cddbd v1.5.1PL0 Copyright (c) Steve Scherf et al.
# Submitted via: ExactAudioCopy v0.90b4
#
DISCID=160cf912
DTITLE=B.B. King - The Album [CD2]
DYEAR=1900
DGENRE=Blues
TTITLE0=Tickle Britches
TTITLE1=Don't Break Your Promises
TTITLE2=Five Long Years
TTITLE3=Catfish Blues (Live)
TTITLE4=The Other Night Blues
TTITLE5=A New Way Of Driving (Live)
TTITLE6=Army Of Lord
TTITLE7=I Never Heard A Man
TTITLE8=Save A Seat For Me
TTITLE9=Servant's Prayer
TTITLE10=Take My Hand Precious Lord
TTITLE11=B.B. Boogie
TTITLE12=You Upset Me Baby
TTITLE13=Rock Me Baby (Live)
TTITLE14=Blues At Midnight
TTITLE15=I Done Got Wise
TTITLE16=Lucille
TTITLE17=Please Accept My Love (Live)
EXTD=
EXTT0=
EXTT1=
EXTT2=
EXTT3=Live
EXTT4=
EXTT5=Live
EXTT6=
EXTT7=
EXTT8=
EXTT9=
EXTT10=
EXTT11=
EXTT12=
EXTT13=Live
EXTT14=
EXTT15=
EXTT16=
EXTT17=Live
PLAYORDER=
